<svg width="92" height="97" viewBox="0 0 92 97" fill="none" xmlns="http://www.w3.org/2000/svg">
<path fill-rule="evenodd" clip-rule="evenodd" d="M42.5674 29.2539C48.1173 29.3634 52.6653 29.8973 55.9613 30.9614C55.8967 18.8119 58.9621 15.3838 71.7485 5C71.6314 36.4211 71.0423 41.3215 84.1348 56.69C79.3822 61.8827 69.2448 69.9753 56.3392 76.3648C55.8261 78.3928 55.3521 80.2439 54.9536 83.1947C50.1562 89.061 46.2534 93.3115 43.1972 96H41.9376C38.8813 93.3115 34.9786 89.061 30.1811 83.1947C29.7827 80.2439 29.3086 78.3928 28.7956 76.3648C15.8899 69.9753 5.75254 61.8827 1 56.69C14.0925 41.3215 13.5034 36.4211 13.3862 5C26.1726 15.3838 29.2381 18.8119 29.1734 30.9614C32.4694 29.8973 37.0175 29.3634 42.5674 29.2539Z" fill="#1D1D1D" stroke="#FF9127" stroke-width="1.7014" stroke-miterlimit="1.5" stroke-linecap="round" stroke-linejoin="round"/>
<path d="M64.743 52.1094C55.6439 58.9711 52.691 62.2429 51.8672 73.4528" stroke="#FF9127" stroke-width="1.7014" stroke-miterlimit="1.5" stroke-linecap="round" stroke-linejoin="round"/>
<path d="M20.2344 52.1094C29.3334 58.9711 32.2868 62.2429 33.1106 73.4528" stroke="#FF9127" stroke-width="1.7014" stroke-miterlimit="1.5" stroke-linecap="round" stroke-linejoin="round"/>
<circle cx="84.5" cy="7.5" r="7" stroke="#FF9127"/>
<path d="M86.44 11L84.78 8.15H83.68V11H82.77V4.03H85.02C85.5467 4.03 85.99 4.12 86.35 4.3C86.7167 4.48 86.99 4.72333 87.17 5.03C87.35 5.33667 87.44 5.68667 87.44 6.08C87.44 6.56 87.3 6.98333 87.02 7.35C86.7467 7.71667 86.3333 7.96 85.78 8.08L87.53 11H86.44ZM83.68 7.42H85.02C85.5133 7.42 85.8833 7.3 86.13 7.06C86.3767 6.81333 86.5 6.48667 86.5 6.08C86.5 5.66667 86.3767 5.34667 86.13 5.12C85.89 4.89333 85.52 4.78 85.02 4.78H83.68V7.42Z" fill="#FF9127"/>
</svg>
